<?xml version="1.0" encoding="UTF-8" standalone="no"?>
<svg width="10px" height="10px" viewBox="0 0 12 12" version="1.1" xmlns="http://www.w3.org/2000/svg" xmlns:xlink="http://www.w3.org/1999/xlink">
    <!-- Generator: Sketch 3.8.3 (29802) - http://www.bohemiancoding.com/sketch -->
    <title>Shape</title>
    <desc>Created with Sketch.</desc>
    <defs></defs>
    <g id="Page-1" stroke="none" stroke-width="1" fill="none" fill-rule="evenodd">
        <g id="Desktop" transform="translate(-937.000000, -526.000000)" fill="#BCBCBC">
            <g id="菜单-(5)" transform="translate(937.000000, 457.000000)">
                <g id="Group" transform="translate(0.067161, 0.022059)">
                    <path d="M2.57839119,72.5566929 L9.05970669,72.5566929 C9.3519687,72.5566929 9.5889379,72.3257914 9.5889379,72.041418 C9.5889379,71.7570447 9.3519687,71.5261432 9.05970669,71.5261432 L2.57839119,71.5261432 C2.28612918,71.5261432 2.04915998,71.7570447 2.04915998,72.041418 C2.04915998,72.3257914 2.28612918,72.5566929 2.57839119,72.5566929 L2.57839119,72.5566929 L2.57839119,72.5566929 Z M2.57797546,77.3667353 L5.35966128,77.3671404 L5.35966128,77.3671404 C5.65150756,77.3671404 5.88847676,77.136644 5.88847676,76.8518655 C5.88847676,76.5674921 5.65150756,76.3365906 5.35966128,76.3365906 L2.57839119,76.3365906 L2.57839119,76.3365906 C2.28612918,76.3365906 2.04915998,76.567087 2.04915998,76.8514604 C2.04915998,77.1362389 2.28571344,77.3667353 2.57797546,77.3667353 L2.57797546,77.3667353 L2.57797546,77.3667353 Z M2.57839119,74.9621192 L9.05970669,74.9621192 C9.3519687,74.9621192 9.5889379,74.7308126 9.5889379,74.4464392 C9.5889379,74.1616607 9.3519687,73.9311643 9.05970669,73.9311643 L2.57839119,73.9311643 C2.28612918,73.9311643 2.04915998,74.1616607 2.04915998,74.4464392 C2.04915998,74.7308126 2.28612918,74.9621192 2.57839119,74.9621192 L2.57839119,74.9621192 L2.57839119,74.9621192 Z M9.10834774,69 L2.52933441,69 C1.13495775,69 2.66453526e-15,70.1054915 2.66453526e-15,71.4641644 L2.66453526e-15,77.5307968 C2.66453526e-15,78.8894697 1.13495775,79.9961765 2.52933441,79.9961765 L5.33346995,79.9961765 C5.62573196,79.9961765 5.86228543,79.765275 5.86228543,79.4809016 C5.86228543,79.1961231 5.62531623,78.9656267 5.33346995,78.9656267 L2.52933441,78.9656267 C1.71823457,78.9656267 1.05763096,78.3219382 1.05763096,77.5312019 L1.05763096,71.4641644 C1.05763096,70.6738332 1.71781883,70.0305497 2.52933441,70.0305497 L9.107932,70.0305497 C9.91944758,70.0305497 10.5796355,70.6742383 10.5796355,71.4641644 L10.5796355,75.7735151 L9.54528568,75.7735151 C8.28144995,75.7735151 7.25292047,76.7757085 7.25292047,78.007183 L7.25292047,79.4221635 C7.25292047,79.5461211 7.2978199,79.6591413 7.37223654,79.7482612 C7.46494554,79.8965243 7.63290266,79.9961765 7.82414096,79.9961765 L8.40242896,79.9961765 C8.66933111,79.9961765 8.97448092,79.8584458 9.39104783,79.550172 C9.68414132,79.3338538 10.0158982,79.0450244 10.350981,78.7136605 C10.6752546,78.3940443 10.9737527,78.0614651 11.1911823,77.7779019 C11.5038153,77.3707862 11.6372664,77.0912739 11.6372664,76.8429535 L11.6372664,71.4641644 C11.6376821,70.1058965 10.5027244,69 9.10834774,69 L9.10834774,69 L9.10834774,69 Z M9.59143232,77.9966507 C8.94080635,78.6379087 8.50137399,78.9178261 8.36958586,78.9652216 L8.31096716,78.9652216 L8.31096716,78.0075881 C8.31096716,77.3440502 8.86472677,76.8044699 9.54528568,76.8044699 L10.5783882,76.8044699 C10.5114548,76.9640755 10.1705518,77.4258785 9.59143232,77.9966507 L9.59143232,77.9966507 L9.59143232,77.9966507 Z" id="Shape"></path>
                </g>
            </g>
        </g>
    </g>
</svg>
