<?xml version="1.0" encoding="UTF-8" standalone="no"?>
<svg width="7px" height="8px" viewBox="0 0 7 10" version="1.1" xmlns="http://www.w3.org/2000/svg" xmlns:xlink="http://www.w3.org/1999/xlink">
    <!-- Generator: Sketch 3.8.3 (29802) - http://www.bohemiancoding.com/sketch -->
    <title>Shape</title>
    <desc>Created with Sketch.</desc>
    <defs></defs>
    <g id="Page-1" stroke="none" stroke-width="1" fill="none" fill-rule="evenodd">
        <g id="Desktop" transform="translate(-939.000000, -574.000000)" fill="#373D52">
            <g id="下拉-(3)" transform="translate(939.000000, 574.000000)">
                <g id="Group" transform="translate(0.000000, 0.007812)">
                    <path d="M4.32524695,8.2570103 L8.22021734,3.41111751 C8.46057429,3.17384206 8.5317411,2.8200439 8.40196065,2.51003558 C8.27216814,2.20086136 7.96647436,2 7.62819062,2 L-0.162546786,2 C-0.500854661,2 -0.80654844,2.20169546 -0.936316814,2.51003558 C-0.979021725,2.61254554 -1,2.72004813 -1,2.8266928 C-1,3.0416265 -0.914602247,3.25324765 -0.754621778,3.41115326 L3.14121767,8.25704605 C3.29863922,8.41244938 3.51137921,8.4992784 3.73326852,8.4992784 C3.95515784,8.4992784 4.32524695,8.2570103 4.32524695,8.2570103 Z" id="Shape" transform="translate(3.732968, 5.249639) rotate(-90.000000) translate(-3.732968, -5.249639) "></path>
                </g>
            </g>
        </g>
    </g>
</svg>
